<svg width="128" height="128" viewBox="0 0 128 128" fill="none" xmlns="http://www.w3.org/2000/svg">
<path d="M42.1813 26.6667H49.328C50.3414 26.667 51.317 27.052 52.0575 27.7438C52.7981 28.4357 53.2484 29.3829 53.3175 30.394C53.3865 31.4051 53.0692 32.4047 52.4297 33.1909C51.7901 33.9771 50.876 34.4912 49.872 34.6293L49.3333 34.6667H42.184C41.2559 34.6663 40.3565 34.9887 39.64 35.5787L39.24 35.96L28.1787 47.9947L46.664 47.9973C49.6198 47.9974 52.4716 49.0884 54.6728 51.0612C56.8739 53.034 58.2695 55.7498 58.592 58.688H69.4053C69.7279 55.7493 71.1239 53.0332 73.3255 51.0603C75.5272 49.0875 78.3797 47.9968 81.336 47.9973L99.88 47.9947L88.7707 35.9547C88.143 35.2738 87.2985 34.8317 86.3813 34.704L85.8267 34.6667H78.648C77.6348 34.6657 76.6597 34.2802 75.9196 33.5881C75.1796 32.896 74.7298 31.9489 74.6611 30.938C74.5924 29.9271 74.9098 28.9278 75.5494 28.1419C76.1889 27.356 77.1029 26.8421 78.1067 26.704L78.6507 26.6667H85.8267C88.8305 26.6667 91.7251 27.7933 93.9387 29.824L94.6453 30.528L114.069 51.5813C114.336 51.872 114.555 52.192 114.72 52.528C116.352 54.5787 117.328 57.1733 117.328 59.9973V78.6453C117.328 83.2424 115.502 87.6512 112.251 90.9018C109.001 94.1525 104.592 95.9787 99.9947 95.9787H86.6667C82.0696 95.9787 77.6608 94.1525 74.4101 90.9018C71.1595 87.6512 69.3333 83.2424 69.3333 78.6453L69.328 66.688H58.656L58.6613 78.6453C58.6613 83.2424 56.8351 87.6512 53.5845 90.9018C50.3339 94.1525 45.9251 95.9787 41.328 95.9787H28C23.4029 95.9787 18.9941 94.1525 15.7435 90.9018C12.4928 87.6512 10.6667 83.2424 10.6667 78.6453V60C10.6667 57.0053 11.7653 54.2667 13.5787 52.1627L13.7813 51.8693L14.0133 51.5893L33.344 30.5493C35.3812 28.3316 38.1778 26.9609 41.1787 26.7093L42.1813 26.6693H49.328H42.1813V26.6667ZM46.6613 56H22.6667C21.6058 56 20.5884 56.4214 19.8382 57.1716C19.0881 57.9217 18.6667 58.9391 18.6667 60V78.6453C18.6667 79.871 18.9081 81.0847 19.3771 82.217C19.8462 83.3494 20.5336 84.3783 21.4003 85.245C22.267 86.1117 23.2959 86.7992 24.4283 87.2682C25.5607 87.7372 26.7743 87.9787 28 87.9787H41.328C43.8033 87.9787 46.1773 86.9953 47.9277 85.245C49.678 83.4946 50.6613 81.1207 50.6613 78.6453V60C50.6613 58.9391 50.2399 57.9217 49.4898 57.1716C48.7396 56.4214 47.7222 56 46.6613 56ZM105.328 56H81.3333C80.2725 56 79.255 56.4214 78.5049 57.1716C77.7548 57.9217 77.3333 58.9391 77.3333 60V78.6453C77.3333 79.871 77.5747 81.0847 78.0438 82.217C78.5128 83.3494 79.2003 84.3783 80.067 85.245C80.9337 86.1117 81.9626 86.7992 83.0949 87.2682C84.2273 87.7372 85.441 87.9787 86.6667 87.9787H99.9947C102.47 87.9787 104.844 86.9953 106.594 85.245C108.345 83.4946 109.328 81.1207 109.328 78.6453V60C109.328 58.9391 108.907 57.9217 108.156 57.1716C107.406 56.4214 106.389 56 105.328 56Z" fill="white"/>
</svg>
