<svg width="128" height="128" viewBox="0 0 128 128" fill="none" xmlns="http://www.w3.org/2000/svg">
<path d="M116.213 90.9867L86.6133 61.3867L94.9867 53.0133L74.9867 33.0133L66.6133 41.3867L37.0133 11.7867L11.7867 37.0133L41.3867 66.6133L16 92V112H36L61.3867 86.6133L90.9867 116.213L116.213 90.9867ZM48.96 59.04L26.88 37.0133L37.0133 26.88L43.7867 33.6533L37.44 40L44.96 47.52L51.3067 41.1733L59.04 48.9067L48.96 59.04ZM68.96 79.04L79.0934 68.9067L86.8267 76.64L80.48 82.9867L88 90.5067L94.3467 84.16L101.12 90.9333L90.9867 101.067L68.96 79.04ZM80.7094 27.3227L94.2453 13.7813L114.235 33.7707L100.699 47.312L80.7094 27.3227Z" fill="white"/>
</svg>
